<?xml version="1.0" encoding="utf-8"?>
<!-- Generator: Adobe Illustrator 18.0.0, SVG Export Plug-In . SVG Version: 6.00 Build 0)  -->
<!DOCTYPE svg PUBLIC "-//W3C//DTD SVG 1.1//EN" "http://www.w3.org/Graphics/SVG/1.1/DTD/svg11.dtd">
<svg version="1.1" id="Layer_1" xmlns="http://www.w3.org/2000/svg" xmlns:xlink="http://www.w3.org/1999/xlink" x="0px" y="0px"
	 viewBox="0 0 50 50" enable-background="new 0 0 50 50" xml:space="preserve">
<g>
	<g>
		<path fill="#01BD53" d="M35.2,8.6H13.8c-2.8,0-5,2.2-5,5V35c0,2.8,2.2,5,5,5h21.4c2.8,0,5-2.2,5-5V13.6C40.2,10.8,38,8.6,35.2,8.6
			z M25.9,14.8c0.8-0.9,2.2-1.7,3.3-1.7c0.1,1.3-0.4,2.6-1.2,3.6c-0.8,0.9-2.1,1.7-3.3,1.6C24.5,16.9,25.2,15.6,25.9,14.8z
			 M32.3,32.7c-0.9,1.4-1.9,2.7-3.4,2.8c-1.5,0-2-0.9-3.7-0.9c-1.7,0-2.3,0.9-3.7,0.9C20,35.5,18.9,34,18,32.6
			c-1.9-2.8-3.4-7.9-1.4-11.3c1-1.7,2.7-2.8,4.6-2.8c1.4,0,2.8,1,3.7,1c0.9,0,2.5-1.2,4.3-1c0.7,0,2.8,0.3,4.1,2.2
			c-0.1,0.1-2.4,1.4-2.4,4.3c0,3.4,3,4.5,3,4.5C33.8,29.6,33.4,31.1,32.3,32.7z"/>
	</g>
</g>
</svg>
