<?xml version="1.0" encoding="utf-8"?>
<!-- Generator: Adobe Illustrator 18.0.0, SVG Export Plug-In . SVG Version: 6.00 Build 0)  -->
<!DOCTYPE svg PUBLIC "-//W3C//DTD SVG 1.1//EN" "http://www.w3.org/Graphics/SVG/1.1/DTD/svg11.dtd">
<svg version="1.1" id="Layer_1" xmlns="http://www.w3.org/2000/svg" xmlns:xlink="http://www.w3.org/1999/xlink" x="0px" y="0px"
	 viewBox="0 0 512 512" enable-background="new 0 0 512 512" xml:space="preserve">
<path d="M398.1,50.5H118c-36.4,0-68.5,26.5-68.5,62.9v280.2c0,36.4,32.1,69,68.5,69h173.5c-0.3-54,0.1-114.1-0.2-166.4
	c-11.1-0.1-22.1-0.7-33.2-0.9c0-18.5,0-37.3,0-55.8c11.1-0.1,22.1-0.2,33.2-0.3c0.3-18-0.3-36,0.4-54c1.1-14.2,6.5-28.6,17.1-38.4
	c12.9-12.2,31.1-16.4,48.4-16.9c18.2-0.2,36.5-0.1,54.7-0.1c0.1,19.2,0.1,38.5,0,57.7c-11.8,0-23.6,0-35.4,0
	c-7.5-0.5-15.1,5.2-16.5,12.6c-0.2,12.9-0.1,25.8-0.1,38.6c17.3,0.1,34.6,0,51.9,0c-1.3,18.6-3.6,37.2-6.3,55.6
	c-15.3,0.1-30.6,1.5-45.8,1.6c-0.1,52.2,0,112.4-0.1,166.4h38.6c36.4,0,63.4-32.6,63.4-69V113.4C461.5,77,434.5,50.5,398.1,50.5z"/>
</svg>
