<?xml version="1.0" encoding="utf-8"?>
<!-- Generator: Adobe Illustrator 18.0.0, SVG Export Plug-In . SVG Version: 6.00 Build 0)  -->
<!DOCTYPE svg PUBLIC "-//W3C//DTD SVG 1.1//EN" "http://www.w3.org/Graphics/SVG/1.1/DTD/svg11.dtd">
<svg version="1.1" id="Layer_1" xmlns="http://www.w3.org/2000/svg" xmlns:xlink="http://www.w3.org/1999/xlink" x="0px" y="0px"
	 viewBox="0 0 50 50" enable-background="new 0 0 50 50" xml:space="preserve">
<path fill="#01BD53" d="M35.7,9H14.3c-2.8,0-5.2,2-5.2,4.8v21.4c0,2.8,2.4,5.3,5.2,5.3h13.2c0-4.1,0-8.7,0-12.7
	c-0.9,0-1.7-0.1-2.5-0.1c0-1.4,0-2.9,0-4.2c0.9,0,1.7,0,2.5,0c0-1.4,0-2.7,0-4.1c0.1-1.1,0.5-2.2,1.3-2.9c1-0.9,2.4-1.2,3.7-1.3
	c1.4,0,2.8,0,4.2,0c0,1.5,0,2.9,0,4.4c-0.9,0-1.8,0-2.7,0c-0.6,0-1.1,0.4-1.3,1c0,1,0,2,0,3c1.3,0,2.6,0,4,0
	c-0.1,1.4-0.3,2.8-0.5,4.2c-1.2,0-2.3,0.1-3.5,0.1c0,4,0,8.6,0,12.7h2.9c2.8,0,4.8-2.5,4.8-5.3V13.8C40.6,11,38.5,9,35.7,9z"/>
</svg>
