<?xml version="1.0" encoding="utf-8"?>
<!-- Generator: Adobe Illustrator 19.2.1, SVG Export Plug-In . SVG Version: 6.00 Build 0)  -->
<svg version="1.1" id="Layer_1" xmlns="http://www.w3.org/2000/svg" xmlns:xlink="http://www.w3.org/1999/xlink" x="0px" y="0px"
	 width="50px" height="50px" viewBox="0 0 50 50" style="enable-background:new 0 0 50 50;" xml:space="preserve">
<style type="text/css">
	.st0{fill:#1DBB58;}
</style>
<path class="st0" d="M35.6,9.1H14.3c-2.8,0-5,2.2-5,5v21.3c0,2.8,2.3,5,5,5h7.4v-0.6c0-0.1,0-0.1,0-0.2c0-0.4,0-1.6,0-3
	c-4.5,1-5.4-1.9-5.4-1.9c-0.7-1.9-1.8-2.3-1.8-2.3c-1.5-1,0.1-1,0.1-1c1.6,0.1,2.5,1.6,2.5,1.6c1.4,2.4,3.8,1.7,4.7,1.3
	c0.1-1,0.6-1.7,1-2.1c-3.6-0.4-7.3-1.8-7.3-7.9c0-1.7,0.6-3.2,1.6-4.3c-0.2-0.4-0.7-2,0.2-4.2c0,0,1.3-0.4,4.4,1.6
	c1.3-0.4,2.7-0.5,4-0.5c1.4,0,2.7,0.2,4,0.5c3.1-2.1,4.4-1.6,4.4-1.6c0.9,2.2,0.3,3.8,0.2,4.2c1,1.1,1.6,2.6,1.6,4.3
	c0,6.2-3.7,7.5-7.3,7.9c0.6,0.5,1.1,1.5,1.1,3c0,2.1,0,3.9,0,4.4c0,0.1,0,0.2,0,0.2v0.6h5.9c2.8,0,5-2.3,5-5V14.1
	C40.6,11.3,38.4,9.1,35.6,9.1z"/>
</svg>
