<?xml version="1.0" encoding="utf-8"?>
<!-- Generator: Adobe Illustrator 19.2.1, SVG Export Plug-In . SVG Version: 6.00 Build 0)  -->
<svg version="1.1" id="Layer_1" xmlns="http://www.w3.org/2000/svg" xmlns:xlink="http://www.w3.org/1999/xlink" x="0px" y="0px"
	 width="512px" height="512px" viewBox="0 0 512 512" style="enable-background:new 0 0 512 512;" xml:space="preserve">
<path d="M396.1,51.2H115.9c-36.4,0-66.4,29-66.4,65.4v280.2c0,36.4,30,66.4,66.4,66.4h97.8v-8.5c0.2-0.9,0.3-1.9,0.3-2.8
	c0-5-0.2-21.7-0.3-39.3c-58.7,12.7-71.1-24.9-71.1-24.9c-9.6-24.4-23.4-30.8-23.4-30.8c-19.2-13.1,1.5-12.8,1.5-12.8
	c21.2,1.5,32.3,21.7,32.3,21.7c18.8,32.2,49.4,22.9,61.4,17.5c1.9-13.6,7.4-22.9,13.4-28.2c-46.8-5.3-96.1-23.4-96.1-104.3
	c0-23,8.2-41.8,21.7-56.6c-2.2-5.4-9.4-26.8,2.1-55.8c0,0,17.7-5.7,58,21.6c16.8-4.7,34.9-7,52.8-7.1c17.9,0.1,36,2.4,52.8,7.1
	c40.2-27.3,58-21.6,58-21.6c11.5,29.1,4.3,50.5,2.1,55.8c13.5,14.8,21.7,33.6,21.7,56.6c0,81-49.3,98.9-96.3,104.1
	c7.6,6.5,14.3,19.4,14.3,39c0,28.2-0.3,50.9-0.3,57.9c0,1.1,0.1,2.1,0.4,3.2v8h77.1c36.4,0,65.4-30,65.4-66.4V116.6
	C461.5,80.2,432.5,51.2,396.1,51.2z"/>
</svg>
