<?xml version="1.0" encoding="utf-8"?>
<!-- Generator: Adobe Illustrator 18.0.0, SVG Export Plug-In . SVG Version: 6.00 Build 0)  -->
<!DOCTYPE svg PUBLIC "-//W3C//DTD SVG 1.1//EN" "http://www.w3.org/Graphics/SVG/1.1/DTD/svg11.dtd">
<svg version="1.1" id="Layer_1" xmlns="http://www.w3.org/2000/svg" xmlns:xlink="http://www.w3.org/1999/xlink" x="0px" y="0px"
	 viewBox="0 0 50 50" enable-background="new 0 0 50 50" xml:space="preserve">
<g>
	<g>
		<path fill="#01BD53" d="M35.4,9H13.7C11.1,9,9,11.1,9,13.8v21.3c0,2.6,2.1,4.8,4.8,4.8h21.7c2.6,0,4.8-2.1,4.8-4.8V13.8
			C40.2,11.1,38.1,9,35.4,9z M14.9,17h19.3c0.3,0,0.5,0.1,0.8,0.1l0,0L24.4,26l-10.3-8.8C14.3,17.1,14.6,17,14.9,17z M12.8,29.8
			V19.1c0-0.5,0.1-0.9,0.4-1.2l0,0l7.4,6.3L13,30.7C12.9,30.4,12.8,30.1,12.8,29.8z M34.2,31.9H14.9c-0.5,0-0.9-0.1-1.2-0.4l7.7-6.6
			l2.6,2.2l0.3,0.3l0.3-0.3l0,0l2.8-2.3l8,6.7C35.1,31.7,34.7,31.9,34.2,31.9z M36.3,29.8c0,0.3-0.1,0.6-0.2,0.9l0,0l-7.8-6.5
			l7.6-6.3c0.3,0.4,0.5,0.8,0.5,1.3V29.8z"/>
	</g>
</g>
</svg>
