<?xml version="1.0" encoding="utf-8"?>
<!-- Generated by IcoMoon.io -->
<!DOCTYPE svg PUBLIC "-//W3C//DTD SVG 1.1//EN" "http://www.w3.org/Graphics/SVG/1.1/DTD/svg11.dtd">
<svg version="1.1" xmlns="http://www.w3.org/2000/svg" xmlns:xlink="http://www.w3.org/1999/xlink" width="512" height="512" viewBox="0 0 512 512">
<g>
</g>
	<path d="M459.878 111.647c-4.803-1.915-9.964-3.010-15.38-3.010h-377.006c-6.144 0-11.879 1.424-17.121 3.82l201.523 175.083 207.985-175.893z" fill="#000000" />
	<path d="M34.253 125.706c-4.905 6.769-7.885 15.043-7.885 24.033v212.501c0 6.154 1.454 11.961 3.87 17.193l148.531-128.185-144.517-125.543z" fill="#000000" />
	<path d="M481.904 379.146c2.345-5.161 3.717-10.865 3.717-16.906v-212.5c0-9.605-3.44-18.35-8.981-25.334l-147.886 125.051 153.149 129.69z" fill="#000000" />
	<path d="M258.427 308.941l-6.697 5.704-6.677-5.786-50.617-43.981-151.143 130.468c6.8 4.976 15.124 8.007 24.197 8.007h377.006c9.195 0 17.623-3.123 24.464-8.233l-156.119-132.198-54.416 46.019z" fill="#000000" />
</svg>
