<?xml version="1.0" encoding="utf-8"?>
<!-- Generator: Adobe Illustrator 18.0.0, SVG Export Plug-In . SVG Version: 6.00 Build 0)  -->
<!DOCTYPE svg PUBLIC "-//W3C//DTD SVG 1.1//EN" "http://www.w3.org/Graphics/SVG/1.1/DTD/svg11.dtd">
<svg version="1.1" id="Layer_1" xmlns="http://www.w3.org/2000/svg" xmlns:xlink="http://www.w3.org/1999/xlink" x="0px" y="0px"
	 viewBox="0 0 50 50" enable-background="new 0 0 50 50" xml:space="preserve">
<g>
	<g>
		<path fill="#01BD53" d="M26.5,23.9l-2.2-0.5c-1.2-0.3-1.8-0.7-1.8-1.2c0-0.4,0.2-0.7,0.5-1c0.3-0.3,0.8-0.4,1.4-0.4
			c0.7,0,1.3,0.1,1.7,0.4c0.1,0.1,0.4,0.4,0.8,0.8c0.3,0.3,0.6,0.4,0.9,0.4c0.3,0,0.6-0.1,0.8-0.3c0.2-0.2,0.4-0.4,0.4-0.8
			c0-0.7-0.5-1.4-1.5-1.9c-0.9-0.5-1.9-0.8-3-0.8c-1.3,0-2.3,0.3-3.1,0.8c-1,0.6-1.5,1.5-1.5,2.7c0,1.6,0.9,2.7,2.8,3.1l3,0.8
			c0.7,0.2,1.1,0.6,1.1,1.2c0,0.4-0.2,0.8-0.5,1c-0.4,0.3-0.9,0.5-1.6,0.5c-0.8,0-1.4-0.2-1.8-0.5c-0.1-0.1-0.4-0.4-0.9-1
			c-0.3-0.4-0.6-0.5-1-0.5c-0.3,0-0.6,0.1-0.8,0.3c-0.2,0.2-0.3,0.5-0.3,0.8c0,0.7,0.4,1.4,1.2,1.9c0.9,0.7,2.1,1,3.6,1
			c1.5,0,2.7-0.3,3.5-1c0.8-0.6,1.2-1.5,1.2-2.6C29.5,25.4,28.5,24.3,26.5,23.9z M35.7,9.3H14.3c-2.8,0-5,2.2-5,5v21.4
			c0,2.8,2.2,5,5,5h21.4c2.8,0,5-2.2,5-5V14.3C40.7,11.5,38.5,9.3,35.7,9.3z M29.8,36.4c-1.3,0-2.5-0.4-3.6-1.1
			c-0.4,0.1-0.9,0.1-1.3,0.1c-5.8,0-10.5-4.7-10.5-10.5c0-0.6,0-1.1,0.1-1.7c-0.5-0.9-0.8-2-0.8-3.1c0-3.6,2.9-6.5,6.5-6.5
			c1.1,0,2.2,0.3,3.2,0.8c0.5-0.1,1-0.1,1.6-0.1c5.8,0,10.5,4.7,10.5,10.5c0,0.6,0,1.1-0.1,1.6c0.6,1,1,2.2,1,3.4
			C36.3,33.5,33.4,36.4,29.8,36.4z"/>
	</g>
</g>
</svg>
