<?xml version="1.0" encoding="utf-8"?>
<!-- Generator: Adobe Illustrator 18.0.0, SVG Export Plug-In . SVG Version: 6.00 Build 0)  -->
<!DOCTYPE svg PUBLIC "-//W3C//DTD SVG 1.1//EN" "http://www.w3.org/Graphics/SVG/1.1/DTD/svg11.dtd">
<svg version="1.1" id="图层_1" xmlns="http://www.w3.org/2000/svg" xmlns:xlink="http://www.w3.org/1999/xlink" x="0px" y="0px"
	 viewBox="0 0 200 200" enable-background="new 0 0 200 200" xml:space="preserve">
<path d="M137.5,106.8h21.4c2.8,0,5,2.2,5,5v21.4c0,2.8-2.2,5-5,5h-21.4c-2.8,0-5-2.2-5-5v-21.4C132.5,109,134.8,106.8,137.5,106.8z"
	/>
<path d="M149.2,73.1h21.4c2.8,0,5,2.2,5,5v21.4c0,2.8-2.2,5-5,5h-21.4c-2.8,0-5-2.2-5-5V78.1C144.2,75.3,146.4,73.1,149.2,73.1z"/>
<path d="M127.7,50h-21.4c-2.8,0-5.2,2-5.2,4.8v21.4c0,2.8,2.4,5.3,5.2,5.3h13.2c0-4.1,0-8.7,0-12.7c-0.9,0-1.7-0.1-2.5-0.1
	c0-1.4,0-2.9,0-4.3c0.9,0,1.7,0,2.5,0c0-1.4,0-2.7,0-4.1c0.1-1.1,0.5-2.2,1.3-2.9c1-0.9,2.4-1.3,3.7-1.3c1.4,0,2.8,0,4.2,0
	c0,1.5,0,2.9,0,4.4c-0.9,0-1.8,0-2.7,0c-0.6,0-1.1,0.4-1.3,1c0,1,0,2,0,3c1.3,0,2.6,0,4,0c-0.1,1.4-0.3,2.8-0.5,4.3
	c-1.2,0-2.3,0.1-3.5,0.1c0,4,0,8.6,0,12.7h2.9c2.8,0,4.8-2.5,4.8-5.3V54.8C132.6,52,130.5,50,127.7,50z"/>
<path d="M34.5,53.1c0-2.8-2.2-5-5-5H8.3c-2.8,0-5,2.2-5,5v21.2c0,2.8,2.3,5,5,5h21.3c2.8,0,5-2.3,5-5V53.1z M28,63.9
	c-0.4,1.7-1.4,3.3-2.7,4.5c-2.5,2.3-6.1,3.4-9.5,3.2c-3.3-0.2-6.5-1.8-8.4-4.5c0.2,0.1,0.3,0.2,0.5,0.4c1.5,1.1,3.5,1.4,5.3,0.9
	c1.1-0.3,2.1-0.9,2.9-1.7c-0.5,0-1.1-0.1-1.4-0.4c-0.2-0.2-0.3-0.6-0.2-0.9c0.2-0.4,0.5-0.6,0.9-0.7c-1.1,0.2-2.4-0.4-2.9-1.4
	c0.4-0.5,1-0.6,1.6-0.6c-0.7-0.2-1.4-0.4-1.9-0.9c-0.4-0.4-0.7-0.9-0.7-1.4c0.5-0.1,0.9-0.2,1.4-0.2c-1.1-0.6-2.1-1.6-2-3
	c2.1,0.8,4.1,1.6,6,2.6c0.7,0.4,1.3,0.9,1.8,1.4c0.5-1.4,1.1-2.8,2-4c0.5-0.6,1-1.3,1.7-1.7c0,0.2-0.1,0.4-0.2,0.6
	c0.5-0.4,1.1-0.7,1.7-0.8c-0.1,0.4-0.5,0.6-0.8,0.8c0.5-0.1,0.9-0.4,1.4-0.4c0.1,0,0.3,0,0.4,0.2c0.1,0.2-0.1,0.4-0.3,0.4
	c-0.5,0.3-1.2,0.3-1.7,0.6c1.1-0.1,2.3,0.3,3.2,1.1c1,0.9,1.7,2.1,2,3.4c0.9,0.3,1.9,0.1,2.8-0.3c-0.4,1-1.5,1.4-2.5,1.5
	c0.8,0.3,1.8,0.4,2.6,0.3C30.1,63.7,29,64,28,63.9z"/>
<g>
	<g>
		<path d="M87.4,50H65.8c-2.6,0-4.8,2.2-4.8,4.8v21.3c0,2.6,2.1,4.8,4.8,4.8h21.7c2.6,0,4.8-2.1,4.8-4.8V54.8
			C92.2,52.1,90.1,50,87.4,50z M66.9,58h19.3c0.3,0,0.5,0.1,0.8,0.1l0,0L76.4,67l-10.3-8.8C66.3,58.1,66.6,58,66.9,58z M64.8,70.8
			V60.1c0-0.5,0.1-0.9,0.4-1.2l0,0l7.4,6.3L65,71.7C64.9,71.4,64.8,71.1,64.8,70.8z M86.2,72.9H66.9c-0.5,0-0.9-0.1-1.2-0.4l7.7-6.6
			l2.6,2.2l0.3,0.3l0.3-0.3l0,0l2.8-2.3l8,6.7C87.1,72.7,86.7,72.9,86.2,72.9z M88.3,70.8c0,0.3-0.1,0.6-0.2,0.9l0,0l-7.8-6.5
			l7.6-6.3c0.3,0.4,0.5,0.8,0.5,1.3V70.8z"/>
	</g>
</g>
<path fill="#FFFFFF" d="M166.2,89.5c0,3.4,3,4.5,3,4.5c0,0.1-0.5,1.6-1.6,3.2c-0.9,1.4-1.9,2.7-3.4,2.8c-1.5,0-2-0.9-3.7-0.9
	c-1.7,0-2.3,0.9-3.7,0.9c-1.5,0.1-2.6-1.5-3.5-2.8c-1.9-2.8-3.4-7.9-1.4-11.3c1-1.7,2.7-2.8,4.6-2.8c1.4,0,2.8,1,3.7,1
	c0.9,0,2.5-1.2,4.3-1c0.7,0,2.8,0.3,4.1,2.2C168.5,85.3,166.2,86.6,166.2,89.5 M163.4,81.1c0.8-0.9,1.3-2.3,1.2-3.6
	c-1.1,0-2.5,0.8-3.3,1.7c-0.7,0.8-1.4,2.2-1.2,3.5C161.3,82.8,162.6,82.1,163.4,81.1"/>
<g>
	<g>
		<path d="M29.6,111.3H8.2c-2.8,0-5,2.2-5,5v21.4c0,2.8,2.2,5,5,5h21.4c2.8,0,5-2.2,5-5v-21.4C34.6,113.5,32.3,111.3,29.6,111.3z
			 M20.2,117.5c0.8-0.9,2.2-1.7,3.3-1.7c0.1,1.3-0.4,2.6-1.2,3.6c-0.8,0.9-2.1,1.7-3.3,1.6C18.9,119.6,19.5,118.3,20.2,117.5z
			 M26.6,135.4c-0.9,1.4-1.9,2.7-3.4,2.8c-1.5,0-2-0.9-3.7-0.9c-1.7,0-2.3,0.9-3.7,0.9c-1.5,0.1-2.6-1.5-3.5-2.8
			c-1.9-2.8-3.4-7.9-1.4-11.3c1-1.7,2.7-2.8,4.6-2.8c1.4,0,2.8,1,3.7,1c0.9,0,2.5-1.2,4.3-1c0.7,0,2.8,0.3,4.1,2.2
			c-0.1,0.1-2.4,1.4-2.4,4.3c0,3.4,3,4.5,3,4.5C28.2,132.3,27.7,133.8,26.6,135.4z"/>
	</g>
</g>
<path fill="#FFFFFF" d="M155,123.5c0.1-0.4,0.1-0.7,0.1-1.1c0-3.8-3.1-6.9-6.9-6.9c-0.4,0-0.7,0-1,0.1c-0.6-0.3-1.3-0.5-2.1-0.5
	c-2.4,0-4.3,1.9-4.3,4.3c0,0.7,0.2,1.4,0.5,2c-0.1,0.4-0.1,0.7-0.1,1.1c0,3.8,3.1,6.9,6.9,6.9c0.3,0,0.6,0,0.9-0.1
	c0.7,0.4,1.5,0.7,2.4,0.7c2.4,0,4.3-1.9,4.3-4.3C155.7,124.9,155.4,124.1,155,123.5z M150.4,125.6c-0.5,0.5-1.3,0.7-2.3,0.7
	c-1,0-1.8-0.2-2.4-0.7c-0.5-0.4-0.8-0.8-0.8-1.3c0-0.2,0.1-0.4,0.2-0.5c0.1-0.1,0.3-0.2,0.5-0.2c0.2,0,0.5,0.1,0.7,0.4
	c0.3,0.4,0.5,0.6,0.6,0.7c0.3,0.2,0.7,0.4,1.2,0.4c0.4,0,0.8-0.1,1-0.3c0.2-0.2,0.4-0.4,0.4-0.7c0-0.4-0.2-0.7-0.7-0.8l-2-0.5
	c-1.2-0.3-1.9-1-1.9-2.1c0-0.8,0.3-1.4,1-1.8c0.5-0.4,1.2-0.5,2.1-0.5c0.7,0,1.4,0.2,2,0.5c0.6,0.4,1,0.8,1,1.3
	c0,0.2-0.1,0.4-0.2,0.5c-0.2,0.1-0.3,0.2-0.6,0.2c-0.2,0-0.4-0.1-0.6-0.3c-0.3-0.3-0.5-0.5-0.5-0.5c-0.3-0.2-0.7-0.3-1.1-0.3
	c-0.4,0-0.7,0.1-0.9,0.2c-0.2,0.2-0.3,0.4-0.3,0.6c0,0.4,0.4,0.6,1.2,0.8l1.4,0.3c1.3,0.3,2,1,2,2.2
	C151.2,124.6,151,125.2,150.4,125.6z"/>
<g>
	<g>
		<path d="M74.5,111.3H53.1c-2.8,0-5,2.2-5,5v21.4c0,2.8,2.2,5,5,5h21.4c2.8,0,5-2.2,5-5v-21.4C79.5,113.5,77.3,111.3,74.5,111.3z
			 M68.7,138.3c-1.3,0-2.5-0.4-3.6-1.1c-0.4,0.1-0.9,0.1-1.3,0.1c-5.8,0-10.5-4.7-10.5-10.5c0-0.6,0-1.1,0.1-1.7
			c-0.5-0.9-0.8-2-0.8-3.1c0-3.6,2.9-6.5,6.5-6.5c1.1,0,2.2,0.3,3.2,0.8c0.5-0.1,1-0.1,1.6-0.1c5.8,0,10.5,4.7,10.5,10.5
			c0,0.6,0,1.1-0.1,1.6c0.6,1,1,2.2,1,3.4C75.1,135.4,72.2,138.3,68.7,138.3z M65.4,125.8l-2.2-0.5c-1.2-0.3-1.8-0.7-1.8-1.2
			c0-0.4,0.2-0.7,0.5-1c0.3-0.3,0.8-0.4,1.4-0.4c0.7,0,1.3,0.1,1.7,0.4c0.1,0.1,0.4,0.4,0.8,0.8c0.3,0.3,0.6,0.4,0.9,0.4
			c0.3,0,0.6-0.1,0.8-0.3c0.2-0.2,0.4-0.4,0.4-0.8c0-0.7-0.5-1.4-1.5-1.9c-0.9-0.5-1.9-0.8-3-0.8c-1.3,0-2.3,0.3-3.1,0.8
			c-1,0.6-1.5,1.5-1.5,2.7c0,1.6,0.9,2.7,2.8,3.1l3,0.8c0.7,0.2,1.1,0.6,1.1,1.2c0,0.4-0.2,0.8-0.5,1c-0.4,0.3-0.9,0.5-1.6,0.5
			c-0.8,0-1.4-0.2-1.8-0.5c-0.1-0.1-0.4-0.4-0.9-1c-0.3-0.4-0.6-0.5-1-0.5c-0.3,0-0.6,0.1-0.8,0.3c-0.2,0.2-0.3,0.5-0.3,0.8
			c0,0.7,0.4,1.4,1.2,1.9c0.9,0.7,2.1,1,3.6,1c1.5,0,2.7-0.3,3.5-1c0.8-0.6,1.2-1.5,1.2-2.6C68.4,127.4,67.4,126.3,65.4,125.8z"/>
	</g>
</g>
</svg>
