<?xml version="1.0" encoding="utf-8"?>
<!-- Generator: Adobe Illustrator 18.0.0, SVG Export Plug-In . SVG Version: 6.00 Build 0)  -->
<!DOCTYPE svg PUBLIC "-//W3C//DTD SVG 1.1//EN" "http://www.w3.org/Graphics/SVG/1.1/DTD/svg11.dtd">
<svg version="1.1" id="Layer_1" xmlns="http://www.w3.org/2000/svg" xmlns:xlink="http://www.w3.org/1999/xlink" x="0px" y="0px"
	 viewBox="0 0 512 512" enable-background="new 0 0 512 512" xml:space="preserve">
<path d="M461.5,115.9c0-36.4-29-65.4-65.4-65.4H115.9c-36.4,0-66.4,29-66.4,65.4v280.2c0,36.4,30,66.4,66.4,66.4h280.2
	c36.4,0,65.4-30,65.4-66.4V115.9z M375.6,259.6c-5.6,22.8-18.9,43.3-36.1,59.1c-33.5,30.4-80,44.9-124.9,42
	c-43.1-2.6-85.6-23.9-111.1-59.2c2.2,1.3,4.1,3.1,6.2,4.5c19.7,14.3,46,18.8,69.5,12.4c14.2-3.7,27.2-11.6,37.5-22
	c-6.6,0.4-13.9-0.7-18.7-5.7c-3-2.8-4.2-7.5-2.4-11.3c2.2-4.8,7-7.5,11.6-9.7c-15,2.1-31.3-4.8-38.2-18.7c5.1-6,13.1-8,20.6-8.6
	c-8.7-2.5-17.7-5.7-24.3-12.2c-5.3-4.9-8.7-11.8-9.7-18.9c6.2-1.2,12.4-2.6,18.7-2.3c-14.4-7.5-27.5-21.7-26.4-39
	c27.3,9.9,54.1,21.3,79.7,35c9,4.9,16.4,12,23.7,19.1c7.1-18.4,14.7-36.9,26.3-53.1c6.2-8.5,13.5-16.4,22.5-22
	c-0.4,2.8-1.8,5.2-3.1,7.6c6.7-5.1,14.4-9,22.9-9.9c-1.2,5-5.9,7.7-10.1,10c6.3-1.9,12.4-4.6,19-5c1.8-0.1,4.3,0,4.9,2.1
	c1,2.6-1.6,4.5-3.6,5.6c-7.2,3.7-15.6,4.3-22.9,7.7c15.1-1.4,30.2,4.4,41.6,14.1c13.7,11.3,22.7,27.5,26,44.9
	c12.1,3.2,25.1,0.9,36.5-3.9c-5.7,12.9-20.2,18.8-33.5,20c11,4.2,23.1,4.9,34.8,3.6C403.3,256,389,259.9,375.6,259.6z"/>
</svg>
